<svg display="none" xmlns="http://www.w3.org/2000/svg">
  <symbol id="fb" viewBox="0 0 10.5 20.19">
    <g>
      <path
        d="M6.811,20.189 L6.811,10.987 L9.898,10.987 L10.361,7.400 L6.811,7.400 L6.811,5.110 C6.811,4.073 7.098,3.365 8.588,3.365 L10.486,3.364 L10.486,0.156 C10.158,0.113 9.031,0.014 7.720,0.014 C4.982,0.014 3.107,1.686 3.107,4.755 L3.107,7.400 L0.011,7.400 L0.011,10.987 L3.107,10.987 L3.107,20.189 L6.811,20.189 Z"/>
    </g>
  </symbol>

  <symbol id="vk" viewBox="0 0 17.84 10.06">
    <g>
      <path
        d="M17.107,8.159 C16.575,7.523 15.950,6.980 15.358,6.402 C14.824,5.882 14.791,5.581 15.220,4.980 C15.688,4.325 16.192,3.695 16.664,3.044 C17.105,2.434 17.557,1.827 17.789,1.097 C17.936,0.632 17.806,0.427 17.329,0.346 C17.247,0.331 17.162,0.331 17.078,0.331 L14.250,0.328 C13.902,0.323 13.709,0.474 13.586,0.783 C13.420,1.200 13.248,1.616 13.050,2.018 C12.601,2.930 12.099,3.811 11.395,4.557 C11.240,4.722 11.068,4.930 10.809,4.844 C10.484,4.725 10.389,4.192 10.394,4.011 L10.391,0.752 C10.328,0.286 10.225,0.079 9.762,-0.012 L6.824,-0.011 C6.432,-0.011 6.235,0.140 6.026,0.385 C5.905,0.526 5.869,0.618 6.117,0.665 C6.605,0.758 6.879,1.073 6.952,1.560 C7.069,2.341 7.061,3.125 6.994,3.907 C6.974,4.136 6.934,4.364 6.844,4.578 C6.702,4.913 6.472,4.981 6.171,4.775 C5.898,4.588 5.706,4.324 5.519,4.060 C4.814,3.065 4.252,1.993 3.794,0.867 C3.661,0.541 3.433,0.344 3.088,0.338 C2.239,0.325 1.390,0.323 0.542,0.339 C0.031,0.349 -0.121,0.596 0.087,1.058 C1.011,3.111 2.040,5.107 3.383,6.925 C4.072,7.858 4.864,8.681 5.886,9.266 C7.045,9.927 8.292,10.127 9.606,10.065 C10.221,10.036 10.406,9.876 10.435,9.264 C10.454,8.844 10.502,8.429 10.708,8.052 C10.911,7.682 11.219,7.612 11.574,7.842 C11.751,7.958 11.900,8.104 12.042,8.258 C12.388,8.636 12.722,9.026 13.081,9.392 C13.532,9.850 14.066,10.121 14.738,10.065 L17.337,10.065 C17.756,10.039 17.973,9.525 17.733,9.059 C17.564,8.732 17.342,8.441 17.107,8.159 Z"/>
    </g>
  </symbol>

  <symbol id="insta" viewBox="0 0 512 512">
    <g>
      <path
        d="M256,152c-57.9,0-105,47.1-105,105s47.1,105,105,105s105-47.1,105-105S313.9,152,256,152z M256,152   c-57.9,0-105,47.1-105,105s47.1,105,105,105s105-47.1,105-105S313.9,152,256,152z M437,0H75C33.6,0,0,33.6,0,75v362   c0,41.4,33.6,75,75,75h362c41.4,0,75-33.6,75-75V75C512,33.6,478.4,0,437,0z M256,392c-74.399,0-135-60.601-135-135   c0-74.401,60.601-135,135-135s135,60.599,135,135C391,331.399,330.399,392,256,392z M421,122c-16.5,0-30-13.5-30-30s13.5-30,30-30   s30,13.5,30,30S437.5,122,421,122z M256,152c-57.9,0-105,47.1-105,105s47.1,105,105,105s105-47.1,105-105S313.9,152,256,152z    M256,152c-57.9,0-105,47.1-105,105s47.1,105,105,105s105-47.1,105-105S313.9,152,256,152z M256,152c-57.9,0-105,47.1-105,105   s47.1,105,105,105s105-47.1,105-105S313.9,152,256,152z"/>
    </g>
  </symbol>

  <symbol id="close" viewBox="0 0 27.06 27.062">
    <g>
      <path
        d="M15.010,13.515 L26.739,1.787 C27.152,1.374 27.152,0.705 26.739,0.292 C26.326,-0.121 25.657,-0.121 25.244,0.292 L13.515,12.020 L1.786,0.292 C1.373,-0.121 0.703,-0.121 0.290,0.292 C-0.123,0.705 -0.123,1.374 0.290,1.787 L12.019,13.515 L0.290,25.243 C-0.123,25.656 -0.123,26.325 0.290,26.738 C0.497,26.945 0.767,27.048 1.038,27.048 C1.309,27.048 1.579,26.945 1.786,26.738 L13.515,15.010 L25.244,26.738 C25.450,26.945 25.721,27.048 25.991,27.048 C26.262,27.048 26.533,26.945 26.739,26.738 C27.152,26.325 27.152,25.656 26.739,25.243 L15.010,13.515 Z"/>
    </g>
  </symbol>

  <symbol id="gear" viewBox="0 0 1533.28 1533.28">
    <g>
      <path
        d="M534.01 36.36c201.66,-64.24 410.27,-40.65 584.52,49.41 174.25,90.06 314.15,246.59 378.39,448.25 64.24,201.66 40.65,410.27 -49.41,584.52 -90.06,174.25 -246.59,314.15 -448.25,378.39 -201.66,64.24 -410.27,40.65 -584.52,-49.41 -38.02,-19.65 -74.41,-42.47 -108.73,-68.23l91.28 -29.08c16.98,10.74 34.42,20.74 52.26,29.96 157.01,81.15 344.99,102.4 526.7,44.52 181.72,-57.88 322.77,-183.94 403.92,-340.96 81.15,-157.01 102.4,-344.99 44.52,-526.7 -57.88,-181.72 -183.94,-322.77 -340.96,-403.92 -157.01,-81.15 -344.99,-102.4 -526.7,-44.52 -181.72,57.88 -322.77,183.94 -403.92,340.96 -9.22,17.84 -17.66,36.08 -25.3,54.67l-91.28 29.07c13.1,-40.86 29.58,-80.52 49.23,-118.54 90.06,-174.25 246.59,-314.15 448.25,-378.39zm543.99 827.93l31.5 0c32.86,0 59.56,-26.7 59.56,-59.56l0 -76.19c0,-32.86 -26.7,-59.56 -59.56,-59.56l-31.6 0 -1.72 -5.21c-4.89,-14.84 -10.89,-29.32 -17.93,-43.27l-2.47 -4.89 22.32 -22.43c23.16,-23.27 23.19,-60.91 -0.04,-84.14l-53.84 -53.84c-23.23,-23.23 -60.87,-23.2 -84.14,-0.04l-22.44 22.32 -4.88 -2.46c-13.97,-7.05 -28.45,-13.07 -43.29,-18.02l-5.18 -1.73 0 -31.5c0,-32.86 -26.7,-59.56 -59.56,-59.56l-76.19 0c-32.86,0 -59.56,26.7 -59.56,59.56l0 31.6 -5.21 1.72c-14.84,4.89 -29.32,10.89 -43.27,17.93l-4.89 2.47 -22.43 -22.32c-23.27,-23.15 -60.91,-23.19 -84.14,0.04l-53.84 53.84c-23.23,23.23 -23.2,60.87 -0.04,84.14l22.32 22.44 -2.46 4.88c-7.05,13.97 -13.07,28.45 -18.02,43.29l-1.73 5.18 -31.5 0c-32.86,0 -59.56,26.7 -59.56,59.56l0 76.19c0,32.86 26.7,59.56 59.56,59.56l31.6 0 1.72 5.21c4.89,14.84 10.89,29.32 17.93,43.27l2.47 4.89 -22.32 22.43c-11.12,11.17 -17.42,26.28 -17.42,42.05 0,15.79 6.29,30.93 17.46,42.09l53.84 53.84c23.23,23.23 60.87,23.2 84.14,0.04l22.44 -22.32 4.88 2.46c13.97,7.05 28.45,13.07 43.29,18.02l5.18 1.73 0 31.5c0,32.86 26.7,59.56 59.56,59.56l76.19 0c32.86,0 59.56,-26.7 59.56,-59.56l0 -31.6 5.21 -1.72c14.84,-4.89 29.32,-10.89 43.27,-17.93l4.89 -2.47 22.43 22.32c23.27,23.16 60.91,23.19 84.14,-0.04l53.84 -53.84c11.17,-11.16 17.46,-26.3 17.46,-42.09 0,-15.78 -6.3,-30.88 -17.42,-42.05l-22.32 -22.44 2.46 -4.88c7.05,-13.97 13.07,-28.45 18.02,-43.29l1.73 -5.18zm22.74 -68.32l-29.46 0c-26.33,0 -49.66,17.31 -57.05,42.62 -5.29,18.12 -12.55,35.67 -21.6,52.23 -12.6,23.07 -8.4,51.75 9.98,70.39l21.04 20.93 -41.5 41.5 -20.69 -20.79c-18.76,-18.5 -47.42,-22.89 -70.63,-10.22 -16.57,9.05 -34.11,16.31 -52.24,21.6 -25.31,7.39 -42.62,30.72 -42.62,57.05l0 29.46 -58.67 0 0 -29.46c0,-26.33 -17.31,-49.66 -42.62,-57.05 -18.1,-5.28 -35.65,-12.46 -52.17,-21.56 -8.69,-4.79 -18.48,-7.24 -28.39,-7.24 -15.73,0 -30.85,6.17 -42.02,17.13l-20.98 21.08 -41.5 -41.5 20.79 -20.69c18.5,-18.76 22.89,-47.42 10.22,-70.63 -9.05,-16.57 -16.31,-34.11 -21.6,-52.24 -7.39,-25.31 -30.72,-42.62 -57.05,-42.62l-29.46 0 0 -58.67 29.46 0c26.33,0 49.66,-17.31 57.05,-42.62 5.29,-18.13 12.55,-35.67 21.6,-52.24 12.6,-23.07 8.4,-51.75 -9.98,-70.39l-21.04 -20.93 41.5 -41.5 20.69 20.79c18.76,18.5 47.42,22.89 70.63,10.22 16.57,-9.05 34.11,-16.31 52.24,-21.6 25.31,-7.39 42.62,-30.72 42.62,-57.05l0 -29.46 58.67 0 0 29.46c0,26.33 17.31,49.66 42.62,57.05 18.12,5.29 35.66,12.55 52.23,21.6 23.07,12.6 51.75,8.4 70.39,-9.98l20.93 -21.04 41.5 41.5 -20.79 20.69c-18.5,18.76 -22.89,47.42 -10.22,70.63 9.05,16.57 16.31,34.11 21.6,52.23 7.39,25.31 30.72,42.62 57.05,42.62l29.46 0 0 58.67zm-334.1 -218.91c-50.43,0 -98.38,19.86 -134.04,55.53 -35.66,35.66 -55.53,83.61 -55.53,134.04 0,50.43 19.86,98.38 55.53,134.04 35.66,35.66 83.61,55.53 134.04,55.53 50.43,0 98.38,-19.86 134.04,-55.53 35.66,-35.66 55.53,-83.61 55.53,-134.04 0,-50.43 -19.86,-98.38 -55.53,-134.04 -35.66,-35.66 -83.61,-55.53 -134.04,-55.53zm89.09 100.48c23.71,23.71 36.9,55.56 36.9,89.09 0,33.53 -13.19,65.38 -36.9,89.09 -23.71,23.71 -55.56,36.9 -89.09,36.9 -33.53,0 -65.38,-13.19 -89.09,-36.9 -23.71,-23.71 -36.9,-55.56 -36.9,-89.09 0,-33.53 13.19,-65.38 36.9,-89.09 23.71,-23.71 55.56,-36.9 89.09,-36.9 33.53,0 65.38,13.19 89.09,36.9zm-634.57 627.72c-82.37,-83.28 -146.82,-186.75 -184.81,-306 -37.99,-119.26 -45.26,-240.94 -26.23,-356.52l82.29 -26.21c-25.8,115.38 -22.3,238.93 16.17,359.72 38.48,120.79 107.08,223.59 194.86,302.8l-82.29 26.21z"/>
    </g>
  </symbol>

  <symbol id="pc" viewBox="0 0 6818.81 6831.69">
    <g>
      <path
        d="M3669.54 6469.71c743.95,-63.3 1412.39,-391.36 1910.63,-889.61 556.59,-556.58 900.85,-1325.53 900.85,-2174.88 0,-1121.36 -651.27,-2205.69 -1652.33,-2723.07 -699.59,-361.57 -1537.14,-456.25 -2346.8,-198.34 -809.66,257.91 -1438.14,819.58 -1799.71,1519.17 -41.08,79.49 -78.68,160.77 -112.74,243.57l-406.69 129.54c58.36,-182.08 131.81,-358.78 219.37,-528.19 401.28,-776.41 1098.74,-1399.74 1997.24,-1685.95 429.69,-136.87 866.45,-184.2 1290.18,-152.49l0 -7.67c837.26,64.11 1590.01,430.27 2149.46,989.72 646.72,646.72 999.81,1491.2 999.81,2413.71 0,467.57 -94.05,913.17 -264.21,1318.97l15.69 0c-36.62,88.18 -76.9,174.77 -120.71,259.55 -401.28,776.41 -1098.73,1399.74 -1997.24,1685.95 -898.51,286.21 -1827.99,181.12 -2604.4,-220.14 -169.42,-87.56 -331.54,-189.22 -484.46,-304l406.69 -129.55c75.67,47.86 153.36,92.41 232.85,133.49 504.5,260.73 1080.74,382.65 1666.53,333.67l0 -13.45zm-2684.12 -653.96c-367,-371.06 -654.17,-832.08 -823.44,-1363.44 -169.26,-531.36 -201.64,-1073.54 -116.88,-1588.5l366.67 -116.8c-114.98,514.11 -99.37,1064.6 72.06,1602.77 171.44,538.18 477.11,996.26 868.25,1349.16l-366.67 116.8z"/>
      <path
        d="M4525.87 4774.05l0 277.51c0,81.33 -66,147.32 -147.32,147.32l-1938.28 0c-81.33,0 -147.32,-66 -147.32,-147.32 0,-62.19 -1.84,-215.06 -0.76,-277.51l-269.06 0 -9.91 -2.3c-109.26,-25.33 -186.79,-123.11 -186.79,-235.24l0 -1995.11c0,-133.09 108.19,-241.28 241.28,-241.28l512.88 0 0 294.66 -459.51 0 0 1463.15 1026.24 0c81.32,0 147.32,66 147.32,147.32 0,81.33 -65.98,147.33 -147.32,147.33l-1026.24 0 0 130.75 2576.69 0 0 -130.75 -1026.39 0c-81.34,0 -147.32,-66 -147.32,-147.33 0,-81.32 66,-147.32 147.32,-147.32l1026.39 0 0 -1463.15 -513.76 0 0 -294.66 566.94 0c133.1,0 241.45,108.13 241.45,241.28l0 1995.11c0,112.18 -77.66,209.9 -186.93,235.24l-9.91 2.3 -269.67 0zm-1938.28 0l0 130.16 1643.65 0 0 -130.16 -1643.65 0z"/>
      <rect x="2036.61" y="4904.96" width="2745.59" height="293.93" rx="139.43" ry="146.97"/>
      <path
        d="M4038.61 1816.49c347.74,347.74 347.74,910.68 0,1258.42 -347.74,347.74 -910.68,347.74 -1258.42,0 -347.74,-347.74 -347.74,-910.68 0,-1258.42 347.74,-347.74 910.68,-347.74 1258.42,0zm-81.17 1023.84c61.78,-85.37 102.25,-183.33 118.75,-287.34l-133.87 0c-5.8,83.45 -18.51,166.88 -39.13,247.91 18.57,12.45 36.67,25.61 54.26,39.43zm-1214.82 -287.34c16.49,104.02 56.97,201.97 118.74,287.34 17.59,-13.82 35.69,-26.97 54.26,-39.43 -20.62,-81.03 -33.33,-164.46 -39.13,-247.91l-133.87 0zm118.74 -501.92c-61.78,85.37 -102.24,183.31 -118.74,287.32l133.87 0c5.8,-83.45 18.51,-166.87 39.13,-247.89 -18.58,-12.46 -36.68,-25.61 -54.26,-39.43zm317.82 -65.93c39.89,14.42 81.04,24.98 122.93,31.62l0 -203.18c-52.63,42.71 -94.16,110.21 -122.93,171.55zm-66.3 204.24c-10.24,49.1 -17.19,99.02 -21.22,149.02l210.44 0 0 -105.03c-64.52,-7.71 -127.96,-22.42 -189.22,-43.99zm189.22 363.61l-210.44 0c4.03,50 10.98,99.93 21.22,149.03 61.26,-21.58 124.7,-36.29 189.22,-43.99l0 -105.03zm0 321.65c-41.89,6.63 -83.04,17.2 -122.94,31.62 28.77,61.34 70.31,128.83 122.94,171.54l0 -203.17zm214.59 0l0 203.17c52.63,-42.71 94.16,-110.2 122.93,-171.54 -39.89,-14.42 -81.04,-24.99 -122.93,-31.62zm0 -216.61c64.52,7.71 127.96,22.42 189.22,43.99 10.24,-49.1 17.19,-99.03 21.22,-149.03l-210.44 0 0 105.03zm189.22 -468.65c-61.26,21.58 -124.69,36.29 -189.22,43.99l0 105.03 210.44 0c-4.03,-50 -10.98,-99.92 -21.22,-149.02zm-189.22 -172.62c41.89,-6.64 83.04,-17.2 122.92,-31.62 -28.77,-61.34 -70.3,-128.83 -122.92,-171.54l0 203.17zm425.61 321.64l133.87 0c-16.49,-104.02 -56.97,-201.96 -118.74,-287.33 -17.59,13.82 -35.68,26.98 -54.26,39.43 20.62,81.03 33.33,164.46 39.13,247.91z"/>
    </g>
  </symbol>

  <symbol id="mobile" viewBox="0 0 2935.49 2683.4">
    <g>
      <path
        d="M960.02 774.11c0,-41.29 16.74,-78.68 43.81,-105.74 27.07,-27.07 64.46,-43.81 105.75,-43.81l458.18 0c41.29,0 78.68,16.74 105.75,43.81 27.07,27.06 43.81,64.45 43.81,105.74l0 1135.19c0,41.29 -16.74,78.68 -43.81,105.74 -27.07,27.07 -64.46,43.81 -105.75,43.81l-458.18 0c-41.29,0 -78.68,-16.74 -105.75,-43.81 -27.07,-27.06 -43.81,-64.45 -43.81,-105.74l0 -1135.19zm108.21 901.68l540.87 0 0 -675.9 -540.87 0 0 675.9zm41 277.23l458.86 0c11.25,0 21.39,-4.65 28.72,-12.09 7.59,-7.7 12.28,-18.4 12.28,-30.13l0 -126.79 -540.87 0 0 126.79c0,11.73 4.69,22.43 12.28,30.13 7.33,7.45 17.48,12.09 28.72,12.09zm-41 -1061.33l540.87 0 0 -116.7c0,-11.73 -4.69,-22.43 -12.28,-30.13 -7.33,-7.44 -17.47,-12.09 -28.72,-12.09l-458.86 0c-11.24,0 -21.39,4.65 -28.72,12.09 -7.59,7.71 -12.28,18.4 -12.28,30.13l0 116.7z"/>
      <path
        d="M1354.11 1184.29l0 -0c0,-30.5 -24.95,-55.44 -55.44,-55.44l-74.4 0c-30.5,0 -55.44,24.95 -55.44,55.44l0 0c0,30.5 24.95,55.44 55.44,55.44l74.4 0c30.5,0 55.44,-24.95 55.44,-55.44z"/>
      <path
        d="M1502.9 1500.31l0 -0c0,-30.5 -24.95,-55.44 -55.44,-55.44l-223.19 0c-30.5,0 -55.44,24.95 -55.44,55.44l0 0c0,30.5 24.95,55.44 55.44,55.44l223.19 0c30.5,0 55.44,-24.95 55.44,-55.44z"/>
      <path
        d="M2191 2191.97c144.85,-144.85 253.05,-326.33 309.57,-529.35l136.98 0c-24.82,105.9 -60.54,208.8 -105.18,295.2 -157.56,304.85 -431.4,549.59 -784.2,661.97 -352.79,112.38 -717.74,71.12 -1022.59,-86.44 -66.52,-34.38 -130.17,-74.29 -190.22,-119.36l159.68 -50.87c29.71,18.79 60.21,36.29 91.42,52.41 465.49,240.58 1032.45,148.52 1404.54,-223.56zm301.97 -1197.26c-93.54,-307.12 -308.2,-576.59 -597.03,-725.87 -274.69,-141.97 -603.54,-179.14 -921.45,-77.88 -317.9,101.27 -564.67,321.8 -706.64,596.49 -16.13,31.21 -30.89,63.12 -44.27,95.64l-159.68 50.86c22.92,-71.49 51.76,-140.87 86.13,-207.39 157.56,-304.85 431.41,-549.59 784.2,-661.97 476.3,-151.72 991.45,-33.37 1350.54,325.72 171.03,171.03 289.75,377.29 349.04,604.4l-140.85 0zm-2106.05 1289.78c-144.1,-145.69 -256.85,-326.71 -323.31,-535.34 -66.46,-208.63 -79.17,-421.52 -45.89,-623.71l143.97 -45.86c-45.14,201.86 -39.02,418 28.29,629.31 67.31,211.31 187.33,391.17 340.91,529.73l-143.97 45.86z"/>
      <path
        d="M2665.45 1681.49l0 14.02c0,29.97 -23.05,56.16 -53.63,56.16l-119.96 0c-30.58,0 -53.63,-26.18 -53.63,-56.16l0 -14.02c-10.54,-4.02 -20.86,-8.58 -30.93,-13.68l-8.09 8.67c-9.97,10.68 -23.75,16.91 -38.38,16.91 -14.63,0 -28.42,-6.24 -38.38,-16.93l-84.79 -90.98c-20.32,-21.81 -20.32,-56.68 0.01,-78.48l9.24 -9.9c-5.14,-11.47 -9.69,-23.2 -13.64,-35.13l-11.46 0c-30.58,0 -53.63,-26.18 -53.63,-56.16 0,-42.87 0,-85.75 0,-128.62 0,-29.98 23.04,-56.16 53.63,-56.16l11.47 0c3.95,-11.93 8.5,-23.66 13.63,-35.13l-9.1 -9.75c-9.9,-10.62 -15.27,-24.78 -15.26,-39.28 0.01,-14.49 5.38,-28.63 15.28,-39.23l84.86 -90.91c21.03,-22.53 55.71,-22.52 76.73,0.02l7.88 8.45c10.06,-5.09 20.39,-9.66 30.92,-13.68l0 -13.65c0,-29.97 23.05,-56.16 53.63,-56.16l119.96 0c30.57,0 53.63,26.19 53.63,56.16l0 13.65c10.54,4.01 20.86,8.58 30.92,13.67l7.89 -8.46c21.02,-22.53 55.7,-22.55 76.73,-0.02l84.85 90.92c9.9,10.62 15.27,24.75 15.27,39.25 0,14.49 -5.36,28.64 -15.26,39.25l-9.09 9.75c5.14,11.47 9.69,23.2 13.64,35.13l11.39 0c30.57,0 53.61,26.17 53.63,56.13l0.07 128.62c0.01,14.5 -5.35,28.65 -15.25,39.27 -9.97,10.68 -23.75,16.92 -38.38,16.92l-11.46 0c-3.95,11.93 -8.5,23.66 -13.64,35.13l9.23 9.9c20.33,21.8 20.33,56.67 0.01,78.48l-84.79 90.98c-9.96,10.68 -23.75,16.93 -38.38,16.93 -14.63,0 -28.41,-6.23 -38.38,-16.92l-8.09 -8.67c-10.06,5.09 -20.39,9.66 -30.92,13.67zm-338.9 -393.26c-0.62,5.75 -0.53,12.71 -0.64,18.49 -0.25,11.72 -0.36,23.45 -0.4,35.18 -0.04,11.37 -0.01,22.76 0.2,34.13 0.1,5.5 -0.03,13.13 0.74,18.25 5.83,29.12 16.52,56.99 31.85,82.43 13.16,21.84 10.44,50.56 -6.98,69.24l-0.31 0.33 9.88 10.6c17.92,-17.77 45.51,-20.6 66.49,-6.06 23.06,15.98 48.68,27.49 76.02,33.79 25.24,5.82 42.04,29.17 42.09,54.75l12.71 0c0.04,-25.57 16.85,-48.94 42.09,-54.75 27.34,-6.3 52.96,-17.81 76.01,-33.79 20.98,-14.54 48.59,-11.71 66.5,6.06l9.88 -10.6 -0.32 -0.34c-17.41,-18.68 -20.14,-47.39 -6.97,-69.23 15.34,-25.45 26.01,-53.31 31.85,-82.44 4.96,-24.76 25.57,-43.86 50.98,-44.59l-0.01 -16.34c-25.4,-0.73 -46.01,-19.84 -50.97,-44.6 -5.83,-29.12 -16.51,-56.98 -31.85,-82.42 -13.16,-21.84 -10.44,-50.55 6.97,-69.23l0.15 -0.16 -9.89 -10.59c-17.92,17.62 -45.4,20.37 -66.31,5.89 -23.06,-15.97 -48.68,-27.49 -76.01,-33.79 -25.12,-5.79 -41.89,-28.96 -42.09,-54.39l-12.71 0c-0.2,25.43 -16.96,48.59 -42.09,54.38 -27.33,6.3 -52.96,17.81 -76.01,33.78 -20.91,14.5 -48.39,11.73 -66.31,-5.88l-9.9 10.6 0.14 0.15c17.41,18.67 20.14,47.41 6.98,69.24 -15.25,25.3 -25.89,52.97 -31.75,81.91z"/>
      <path
        d="M2600.58 1341.7l0 -0c0,-30.5 -24.95,-55.44 -55.44,-55.44l-1320.86 0c-30.49,0 -55.44,24.95 -55.44,55.44l0 0c0,30.49 24.95,55.44 55.44,55.44l1320.86 0c30.5,0 55.44,-24.95 55.44,-55.44z"/>
      <circle cx="2551.83" cy="1341.7" r="118.71"/>
    </g>
  </symbol>

  <symbol id="people" viewBox="0 0 10567.97 10587.92">
    <g>
      <path
        d="M5687.14 10026.91c1152.99,-98.11 2188.95,-606.54 2961.14,-1378.74 862.61,-862.6 1396.16,-2054.34 1396.16,-3370.68 0,-1737.91 -1009.35,-3418.43 -2560.82,-4220.28 -1084.25,-560.36 -2382.3,-707.11 -3637.13,-307.4 -1254.83,399.72 -2228.86,1270.21 -2789.23,2354.45 -63.67,123.19 -121.94,249.16 -174.73,377.5l-630.29 200.77c90.45,-282.19 204.29,-556.05 339.98,-818.6 621.91,-1203.31 1702.85,-2169.35 3095.37,-2612.93 665.95,-212.13 1342.84,-285.47 1999.55,-236.34l0 -11.88c1297.61,99.35 2464.23,666.84 3331.29,1533.9 1002.31,1002.31 1549.53,2311.1 1549.53,3740.82 0,724.65 -145.77,1415.26 -409.49,2044.17l24.32 0c-56.76,136.67 -119.18,270.87 -187.08,402.25 -621.91,1203.31 -1702.84,2169.35 -3095.37,2612.93 -1392.54,443.58 -2833.07,280.71 -4036.37,-341.18 -262.57,-135.71 -513.82,-293.25 -750.83,-471.15l630.29 -200.78c117.28,74.17 237.68,143.22 360.87,206.88 781.88,404.09 1674.96,593.04 2582.83,517.13l0 -20.85zm-4159.92 -1013.53c-568.78,-575.07 -1013.86,-1289.57 -1276.18,-2113.09 -262.32,-823.51 -312.51,-1663.8 -181.14,-2461.9l568.28 -181.02c-178.2,796.78 -154.01,1649.94 111.68,2484.02 265.7,834.08 739.44,1544.02 1345.63,2090.96l-568.27 181.02z"/>
      <path
        d="M4640 5274.63c162.96,141.03 256.24,346.12 256.24,564.92 0,172.43 -57.92,336.35 -162.26,467.12 314.66,197.52 510.94,545.54 510.94,927.65l0 136.11 -446.57 0 0 -136.11c0,-360.74 -287.7,-648.45 -648.44,-648.45 -360.74,0 -648.45,287.72 -648.45,648.45l0 136.11 -446.58 0 0 -136.11c0,-382.15 196.32,-730.18 511.02,-927.7 -40.91,-51.26 -75.02,-107.97 -101.24,-168.75 -21.3,-38.14 -33.79,-80.67 -41.02,-123.63 -0.17,-0.99 -0.35,-1.99 -0.53,-2.97 -2.94,-12.69 -5.55,-25.45 -7.83,-38.28 -69.01,-293.05 -329.58,-496.7 -630.91,-496.7 -360.74,0 -648.46,287.72 -648.46,648.45l0 136.11 -446.57 0 0 -136.11c0,-382.13 196.3,-730.13 510.96,-927.65 -104.35,-130.77 -162.27,-294.71 -162.27,-467.12 0,-415.11 331.23,-746.34 746.34,-746.34 415.1,0 746.33,331.24 746.33,746.34 0,172.47 -57.95,336.43 -162.35,467.23 74.69,46.96 143.42,102.82 204.67,166.29 139.3,-169.17 349.3,-270.26 576.91,-270.26 23.28,0 46.52,1.05 69.65,3.16 67.51,-276.42 240.21,-515 479.58,-665.39 -104.37,-130.79 -162.3,-294.73 -162.3,-467.17 0,-415.11 331.22,-746.34 746.33,-746.34 415.11,0 746.33,331.23 746.33,746.34 0,172.45 -57.94,336.39 -162.31,467.17 239.38,150.4 412.07,388.97 479.58,665.39 23.13,-2.12 46.37,-3.16 69.66,-3.16 228.04,0 438.38,101.48 577.66,271.16 61.47,-63.83 130.51,-120 205.55,-167.18 -104.41,-130.8 -162.36,-294.77 -162.36,-467.24 0,-415.11 331.23,-746.34 746.34,-746.34 415.1,0 746.33,331.24 746.33,746.34 0,172.42 -57.92,336.35 -162.27,467.12 314.67,197.52 510.96,545.53 510.96,927.65l0 136.11 -446.57 0 0 -136.11c0,-360.74 -287.72,-648.45 -648.45,-648.45 -279.28,0 -526.22,175.14 -614.8,439.84 -5.46,16.3 -10.89,32.59 -16.39,48.88 -21.02,126.27 -73.73,243.55 -152,341.65 311.11,195.31 506.83,537.97 510.87,915.59l0.01 148.2 -446.45 0 0 -136.11c0,-360.74 -287.7,-648.45 -648.44,-648.45 -360.74,0 -648.46,287.72 -648.46,648.45l0 136.11 -446.57 0 0 -136.11c0,-382.12 196.29,-730.14 510.95,-927.65 -104.35,-130.77 -162.26,-294.7 -162.26,-467.12 0,-218.8 93.28,-423.89 256.24,-564.91 -40.65,-321.32 -312,-564.5 -643.16,-564.5 -331.18,0 -602.53,243.16 -643.17,564.49zm3143.62 -844.43c-168.96,0 -299.77,130.81 -299.77,299.77 0,168.96 130.82,299.75 299.77,299.75 168.95,0 299.75,-130.8 299.75,-299.75 0,-168.94 -130.8,-299.77 -299.75,-299.77zm-4999.26 0c-168.96,0 -299.76,130.82 -299.76,299.77 0,168.96 130.81,299.75 299.76,299.75 168.95,0 299.74,-130.8 299.74,-299.75 0,-168.95 -130.79,-299.77 -299.74,-299.77zm1069.41 1457.24c2.24,10.25 4.35,20.52 6.29,30.82 34.44,133.04 152.5,221.04 289.85,221.04 168.95,0 299.75,-130.81 299.75,-299.76 0,-168.95 -130.8,-299.76 -299.75,-299.76 -168.96,0 -299.76,130.8 -299.76,299.76 0,16.03 1.2,32.05 3.61,47.89zm1429.4 -2223.38c-168.96,0 -299.76,130.81 -299.76,299.77 0,168.95 130.81,299.75 299.76,299.75 168.95,0 299.75,-130.8 299.75,-299.75 0,-168.95 -130.79,-299.77 -299.75,-299.77zm1133.26 1875.73c-168.96,0 -299.76,130.8 -299.76,299.76 0,168.96 130.8,299.76 299.76,299.76 168.95,0 299.75,-130.82 299.75,-299.76 0,-168.94 -130.8,-299.76 -299.75,-299.76z"/>
    </g>
  </symbol>

  <symbol id="cpu" viewBox="0 0 3003.77 3009.44">
    <g>
      <path
        d="M1616.48 2849.98c327.72,-27.89 622.17,-172.4 841.66,-391.88 245.18,-245.18 396.84,-583.91 396.84,-958.06 0,-493.97 -286.89,-971.63 -727.87,-1199.54 -308.18,-159.27 -677.13,-200.98 -1033.79,-87.37 -356.66,113.61 -633.52,361.04 -792.79,669.21 -18.1,35.02 -34.66,70.82 -49.66,107.3l-179.15 57.07c25.71,-80.21 58.07,-158.05 96.63,-232.67 176.77,-342.02 484.01,-616.6 879.81,-742.68 189.28,-60.29 381.68,-81.14 568.34,-67.17l0 -3.38c368.82,28.24 700.42,189.54 946.86,435.98 284.89,284.89 440.43,656.89 440.43,1063.27 0,205.97 -41.43,402.26 -116.39,581.02l6.91 0c-16.13,38.85 -33.88,76.99 -53.18,114.33 -176.77,342.02 -484,616.6 -879.81,742.68 -395.81,126.08 -805.25,79.79 -1147.27,-96.97 -74.63,-38.57 -146.05,-83.35 -213.41,-133.92l179.15 -57.07c33.33,21.08 67.56,40.71 102.57,58.8 222.24,114.86 476.08,168.56 734.13,146.99l0 -5.93zm-1182.39 -288.08c-161.67,-163.46 -288.17,-366.54 -362.73,-600.61 -74.56,-234.07 -88.83,-472.91 -51.49,-699.75l161.52 -51.45c-50.65,226.47 -43.77,468.97 31.74,706.04 75.52,237.07 210.17,438.86 382.47,594.32l-161.52 51.45z"/>
      <path
        d="M2204.9 2044.69l-138.48 0c-29.54,0 -53.52,-23.98 -53.52,-53.52l0 -481.29 -160.37 0c0,13.45 0,50.33 0,124.75 0,29.54 -23.97,53.52 -53.52,53.52l-5.9 0 0 71.23 160.74 0 0 107.04 -214.26 0c-29.54,0 -53.52,-23.98 -53.52,-53.52l0 -124.75c-3.93,0 -126.73,0 -130.66,0l0 237.7 -107.04 0 0 -237.7c-3.93,0 -88.21,0 -130.66,0l0 124.75c0,29.54 -23.98,53.52 -53.52,53.52l-203.24 0 0 -107.04 149.72 0 0 -71.23 -5.9 0c-29.54,0 -53.52,-23.98 -53.52,-53.52 0,-1.97 0,-120.82 0,-124.75l-160.37 0 0 481.29c0,29.54 -23.98,53.52 -53.52,53.52l-138.47 0c-22.66,42.14 -70.17,66.11 -118.57,57.81 -54.21,-9.3 -93.85,-56.32 -93.85,-111.33 0,-55 39.64,-102.02 93.85,-111.32 48.4,-8.3 95.91,15.66 118.57,57.8l84.95 0 0 -481.29c0,-29.54 23.98,-53.52 53.52,-53.52l213.89 0c0,-3.93 0,-98.77 0,-102.7l-180.03 0c-22.66,42.14 -70.17,66.11 -118.57,57.8 -54.21,-9.3 -93.85,-56.32 -93.85,-111.32 0,-55 39.64,-102.02 93.85,-111.32 48.4,-8.3 95.91,15.66 118.57,57.8l180.03 0 0 -39.76 -148.56 0 0 -107.04 148.56 0 0 -5.9c0,-29.54 23.98,-53.52 53.52,-53.52l243.6 0 0 -81.56 107 0 0 81.56 243.64 0c29.54,0 53.52,23.98 53.52,53.52l0 5.9 148.56 0 0 107.04 -148.56 0 0 46.45 156.57 0c22.67,-42.14 70.17,-66.11 118.57,-57.8 54.21,9.3 93.85,56.32 93.85,111.32 0,55 -39.64,102.02 -93.85,111.32 -48.4,8.3 -95.91,-15.66 -118.57,-57.8l-156.57 0c0,2.2 0,93.81 0,96.01l213.89 0c29.54,0 53.52,23.98 53.52,53.52l0 481.29 84.99 0c19.45,-36.03 57.23,-59.25 99.09,-59.42 42.26,-0.17 81.05,23.34 100.55,60.81 19.45,37.39 16.39,82.76 -7.89,117.21 -24.29,34.45 -65.99,52.57 -107.75,46.81 -36.05,-4.98 -67.11,-26.92 -84.03,-58.37zm-459.41 -463.58l1.23 -487.2 -488.43 0 0 487.2 487.2 0z"/>
      <rect x="1422.77" y="1651.28" width="107" height="282.74"/>
    </g>
  </symbol>

  <symbol id="debug" viewBox="0 0 1766.75 1770.75">
    <g>
      <path d="M773.43 1119.07l0.26 0.1 0.22 0.1c51.53,23.81 107.07,-3.89 146.3,-38.18l7.99 -6.99 14.11 17.94 -28.93 61.36c-6.71,14.24 -0.56,31.37 13.68,38.08 14.24,6.72 31.37,0.56 38.09,-13.68l36.48 -77.36c4.62,-9.8 3.31,-21.37 -3.39,-29.89l-31.99 -40.67 4.18 -6.11c3.8,-5.55 7.43,-11.22 10.91,-16.99l4.7 -7.8 19.91 9.39 34.81 44.25c9.75,12.39 27.78,14.54 40.18,4.8 3.49,-2.74 6.33,-6.24 8.19,-10.27l0.14 -0.3c4.5,-9.74 3.09,-21.18 -3.53,-29.6l-38.98 -49.55c-2.74,-3.49 -6.27,-6.3 -10.28,-8.19l-43.42 -20.46 67.95 -1.56c10.84,-0.25 20.61,-6.6 25.23,-16.4l31.05 -65.84c6.71,-14.24 0.56,-31.37 -13.68,-38.08 -14.24,-6.71 -31.37,-0.57 -38.09,13.68l-28.4 60.23c1.93,-38.4 -0.38,-91.48 -22.47,-134.79l-8.29 -16.25 18.17 1.63c8.75,0.78 17.34,3.09 25.29,6.84l70.49 33.24c14.24,6.71 31.37,0.56 38.08,-13.68 6.72,-14.24 0.57,-31.37 -13.68,-38.09l-70.49 -33.24c-28.26,-13.32 -60.78,-16.13 -90.92,-8.06l-8.24 2.21 -3.54 -7.76c-12.97,-28.44 -35.76,-51.68 -64.07,-65.03l-70.49 -33.24c-14.24,-6.71 -31.37,-0.57 -38.08,13.67 -6.71,14.24 -0.56,31.37 13.68,38.09l70.49 33.24c7.95,3.75 15.18,8.9 21.36,15.15l12.84 12.98 -17.83 3.94c-50.85,11.25 -84.02,40.54 -116.28,64.18l25.92 -54.97c6.71,-14.24 0.56,-31.37 -13.68,-38.09 -14.24,-6.71 -31.37,-0.56 -38.09,13.68l-30.56 64.82c-4.62,9.8 -3.31,21.38 3.39,29.89l42.01 53.41 -43.4 -20.47c-4,-1.89 -8.44,-2.82 -12.86,-2.72l-63.03 1.45c-15.77,0.36 -28.31,13.49 -27.95,29.26 0.36,15.78 13.49,28.32 29.27,27.95l56.28 -1.3 19.91 9.39 -3.03 8.58c-2.24,6.35 -4.3,12.76 -6.17,19.22l-2.06 7.11 -51.73 1.19c-10.84,0.25 -20.6,6.6 -25.22,16.4l-36.48 77.36c-6.71,14.24 -0.56,31.37 13.68,38.09 14.24,6.71 31.37,0.56 38.08,-13.68l28.93 -61.36 22.82 -0.53 -0.3 10.61c-1.49,52.18 12.55,112.76 64.02,137.36l0.57 0.28zm-223.54 99.76c100.6,100.6 237.56,150.89 379.35,135.08 89.03,-9.92 173.55,-45.27 243.53,-101.13l14.09 -11.25 72.02 72.03c20.89,20.89 55.08,20.89 75.97,-0 20.89,-20.88 20.88,-55.08 0,-75.96l-74.85 -74.85 9.57 -13.83c6.36,-9.2 12.44,-18.59 18.19,-28.18 111.12,-185.25 81.63,-416.31 -70.93,-568.87 -183.85,-183.86 -483.08,-183.86 -666.94,0 -183.87,183.87 -183.86,483.08 0,666.96zm597.52 -69.42c-145.62,145.62 -382.52,145.62 -528.13,0 -145.6,-145.6 -145.6,-382.52 0,-528.12 145.61,-145.61 382.52,-145.6 528.13,0 145.62,145.61 145.61,382.51 0,528.12zm-259.26 -382.41c16.12,-8.56 36.67,-15.07 54.18,-6.81 17.51,8.26 25.57,28.25 29.23,46.14l2.28 11.17 -11.36 0.9c-14.97,1.18 -30.25,-1.54 -43.84,-7.95 -13.59,-6.41 -25.4,-16.45 -34.02,-28.76l-6.53 -9.34 10.07 -5.34zm-119.72 252.1c-1.66,-8.97 -2.49,-18.25 -2.59,-27.37 -0.41,-39.13 10.93,-79.96 27.53,-115.19 9.17,-19.46 20.42,-38.13 33.61,-55.14l7.88 -10.16 7.99 10.08c6.15,7.76 13.09,14.89 20.68,21.25l5.97 4.99 -95.37 202.26 -5.7 -30.72zm200.07 -130.98c-4.73,21 -11.98,41.56 -21.16,61.02 -16.53,35.05 -40.73,69.62 -70.95,94.18 -7.22,5.86 -15.04,11.26 -23.17,15.78l-27.36 15.19 95.4 -202.33 7.64 1.43c9.74,1.81 19.66,2.63 29.56,2.44l12.86 -0.25 -2.83 12.55z"/>
      <path d="M950.78 1676.96c192.76,-16.4 365.95,-101.4 495.04,-230.5 144.21,-144.21 233.41,-343.44 233.41,-563.51 0,-290.54 -168.74,-571.49 -428.12,-705.55 -181.26,-93.68 -398.27,-118.21 -608.06,-51.39 -209.78,66.82 -372.62,212.35 -466.3,393.62 -10.64,20.6 -20.39,41.66 -29.21,63.11l-105.37 33.56c15.12,-47.18 34.15,-92.96 56.84,-136.85 103.97,-201.17 284.68,-362.67 517.48,-436.83 314.31,-100.12 654.25,-22.02 891.21,214.94 167.57,167.57 259.05,386.37 259.05,625.39 0,381.92 -235.65,725.57 -613.15,845.82 -232.8,74.16 -473.63,46.93 -674.8,-57.04 -43.9,-22.69 -85.9,-49.03 -125.52,-78.77l105.37 -33.57c19.61,12.4 39.73,23.94 60.33,34.59 130.72,67.56 280.02,99.14 431.8,86.45l0 -3.49zm-695.45 -169.44c-95.09,-96.14 -169.5,-215.59 -213.35,-353.27 -43.86,-137.68 -52.25,-278.15 -30.28,-411.58l95 -30.26c-29.79,133.21 -25.75,275.84 18.67,415.28 44.42,139.44 123.62,258.13 224.96,349.57l-95 30.26z"/>
    </g>
  </symbol>
</svg>